<?xml version="1.0" encoding="UTF-8"?>
<svg id="Layer_2" data-name="Layer 2" xmlns="http://www.w3.org/2000/svg" width="473.8" height="183.77" viewBox="0 0 473.8 183.77">
  <defs>
    <style>
      .cls-1 {
        fill: #fff;
      }
    </style>
  </defs>
  <g id="Layer_1-2" data-name="Layer 1">
    <g id="Text">
      <path class="cls-1" d="M19.86.37h8.94l19.79,52.04h-10.41l-4.84-12.97H15.17l-4.76,12.97H0L19.86.37h0ZM31.52,32.33l-7.18-20.45-7.48,20.45h14.66ZM74.03,43.83c2.39,0,4.41-.49,6.05-1.47,1.64-.98,2.96-2.25,3.96-3.81,1-1.56,1.71-3.36,2.13-5.39.42-2.03.62-4.12.62-6.27V.37h10.04v26.53c0,3.57-.43,6.91-1.28,10.04-.86,3.13-2.2,5.86-4.03,8.21-1.83,2.35-4.19,4.2-7.07,5.57-2.88,1.37-6.33,2.05-10.34,2.05s-7.68-.72-10.59-2.16c-2.91-1.44-5.27-3.35-7.07-5.72-1.81-2.37-3.12-5.12-3.92-8.25-.81-3.13-1.21-6.38-1.21-9.75V.37h10.12v26.53c0,2.2.21,4.31.62,6.34.42,2.03,1.12,3.82,2.13,5.39,1,1.56,2.31,2.82,3.92,3.78,1.61.95,3.59,1.43,5.94,1.43h0ZM145.94,9.24h-16.64v43.17h-10.04V9.24h-16.64V.37h43.32v8.87h0ZM172.18,52.78c-3.81,0-7.27-.75-10.37-2.24-3.1-1.49-5.77-3.47-7.99-5.94-2.22-2.47-3.95-5.29-5.17-8.47-1.22-3.18-1.83-6.43-1.83-9.75s.65-6.79,1.94-9.97c1.29-3.18,3.08-5.99,5.35-8.43,2.27-2.44,4.97-4.39,8.1-5.83,3.13-1.44,6.52-2.16,10.19-2.16s7.2.77,10.3,2.31c3.1,1.54,5.75,3.56,7.95,6.05,2.2,2.49,3.91,5.33,5.13,8.5,1.22,3.18,1.83,6.4,1.83,9.68,0,3.47-.64,6.78-1.91,9.93-1.27,3.15-3.03,5.94-5.28,8.36-2.25,2.42-4.94,4.35-8.06,5.79-3.13,1.44-6.52,2.16-10.19,2.16h0ZM157.08,26.39c0,2.25.34,4.42,1.03,6.52.68,2.1,1.67,3.96,2.97,5.57,1.29,1.61,2.88,2.91,4.76,3.88,1.88.98,4.02,1.47,6.41,1.47s4.61-.5,6.49-1.5c1.88-1,3.47-2.33,4.76-3.99,1.29-1.66,2.27-3.53,2.93-5.61.66-2.08.99-4.19.99-6.34s-.35-4.42-1.06-6.52c-.71-2.1-1.71-3.96-3.01-5.57-1.29-1.61-2.88-2.9-4.76-3.85-1.88-.95-3.99-1.43-6.34-1.43s-4.62.5-6.52,1.5c-1.91,1-3.49,2.32-4.76,3.96-1.27,1.64-2.24,3.49-2.9,5.57-.66,2.08-.99,4.19-.99,6.34h0ZM247.82,52.41V17.96l-13.41,25.65h-5.5l-13.41-25.65v34.45h-10.12V.37h10.85l15.39,29.61L247.16.37h10.78v52.04h-10.12ZM291,52.78c-3.81,0-7.27-.75-10.37-2.24-3.1-1.49-5.77-3.47-7.99-5.94-2.22-2.47-3.95-5.29-5.17-8.47-1.22-3.18-1.83-6.43-1.83-9.75s.65-6.79,1.94-9.97c1.29-3.18,3.08-5.99,5.35-8.43,2.27-2.44,4.97-4.39,8.1-5.83,3.13-1.44,6.52-2.16,10.19-2.16s7.2.77,10.3,2.31c3.1,1.54,5.75,3.56,7.95,6.05,2.2,2.49,3.91,5.33,5.13,8.5,1.22,3.18,1.83,6.4,1.83,9.68,0,3.47-.64,6.78-1.91,9.93-1.27,3.15-3.03,5.94-5.28,8.36-2.25,2.42-4.94,4.35-8.06,5.79-3.13,1.44-6.52,2.16-10.19,2.16h0ZM275.9,26.39c0,2.25.34,4.42,1.03,6.52.68,2.1,1.67,3.96,2.97,5.57,1.3,1.61,2.88,2.91,4.76,3.88,1.88.98,4.02,1.47,6.41,1.47s4.61-.5,6.49-1.5c1.88-1,3.47-2.33,4.76-3.99,1.3-1.66,2.27-3.53,2.93-5.61.66-2.08.99-4.19.99-6.34s-.35-4.42-1.06-6.52c-.71-2.1-1.71-3.96-3.01-5.57-1.3-1.61-2.88-2.9-4.76-3.85-1.88-.95-3.99-1.43-6.34-1.43s-4.62.5-6.52,1.5c-1.91,1-3.49,2.32-4.76,3.96-1.27,1.64-2.24,3.49-2.9,5.57-.66,2.08-.99,4.19-.99,6.34h0ZM360.7,9.24h-16.64v43.17h-10.04V9.24h-16.64V.37h43.32v8.87h0ZM367.15,52.41V.37h10.12v52.04h-10.12ZM393.47.37l14.07,39.36L421.47.37h10.63l-20.3,52.04h-8.5L382.84.37h10.63ZM473.8,43.54v8.87h-36.14V.37h35.48v8.87h-25.36v12.53h21.92v8.21h-21.92v13.56h26.02ZM5.06,117.8v-52.04h22.06c2.39,0,4.61.5,6.63,1.5,2.03,1,3.78,2.32,5.24,3.96,1.47,1.64,2.61,3.49,3.44,5.57.83,2.08,1.25,4.17,1.25,6.27s-.39,4.34-1.17,6.41c-.78,2.08-1.88,3.92-3.3,5.53-1.42,1.61-3.13,2.91-5.13,3.88-2,.98-4.2,1.47-6.6,1.47h-12.31v17.45H5.06ZM15.17,91.48h11.73c1.86,0,3.41-.76,4.65-2.27,1.25-1.52,1.87-3.57,1.87-6.16,0-1.32-.2-2.5-.59-3.56-.39-1.05-.9-1.94-1.54-2.68-.64-.73-1.38-1.28-2.24-1.65-.86-.37-1.72-.55-2.6-.55h-11.29v16.86h0ZM62.23,65.76h8.94l19.79,52.04h-10.41l-4.84-12.97h-18.18l-4.76,12.97h-10.41l19.86-52.04h0ZM73.89,97.71l-7.18-20.45-7.48,20.45h14.66ZM91.62,91.41c0-3.18.57-6.32,1.72-9.42,1.15-3.1,2.82-5.88,5.02-8.32,2.2-2.44,4.89-4.42,8.06-5.94,3.18-1.51,6.79-2.27,10.85-2.27,4.79,0,8.93,1.05,12.42,3.15,3.49,2.1,6.1,4.84,7.81,8.21l-7.77,5.35c-.68-1.47-1.51-2.7-2.49-3.7-.98-1-2.03-1.8-3.15-2.38-1.12-.59-2.3-1.01-3.52-1.28-1.22-.27-2.42-.4-3.59-.4-2.54,0-4.75.51-6.63,1.54-1.88,1.03-3.45,2.36-4.69,3.99-1.25,1.64-2.19,3.49-2.82,5.57-.64,2.08-.95,4.14-.95,6.19,0,2.3.37,4.51,1.1,6.63.73,2.13,1.77,3.99,3.12,5.61,1.34,1.61,2.96,2.91,4.84,3.89,1.88.98,3.95,1.47,6.19,1.47,1.17,0,2.39-.15,3.67-.44,1.27-.29,2.48-.76,3.63-1.39,1.15-.64,2.21-1.45,3.19-2.46.98-1,1.76-2.21,2.35-3.63l8.28,4.76c-.83,1.95-2.02,3.68-3.56,5.17-1.54,1.49-3.27,2.75-5.2,3.77-1.93,1.03-4,1.81-6.19,2.35-2.2.54-4.35.81-6.45.81-3.71,0-7.11-.78-10.19-2.35-3.08-1.56-5.73-3.6-7.95-6.12-2.22-2.52-3.96-5.38-5.2-8.58-1.25-3.2-1.87-6.46-1.87-9.79h0ZM145.06,117.8v-51.97h10.12v24.7l21.84-24.78h11.14l-19.94,23.09,21.18,28.95h-11.36l-16.2-22.5-6.67,6.96v15.54h-10.12ZM208.9,65.76h8.94l19.79,52.04h-10.41l-4.84-12.97h-18.18l-4.76,12.97h-10.41l19.86-52.04h0ZM220.56,97.71l-7.18-20.45-7.48,20.45h14.66ZM277.58,111.93c-4.15,4.15-8.99,6.23-14.51,6.23-3.42,0-6.63-.68-9.64-2.05-3.01-1.37-5.62-3.25-7.84-5.64-2.22-2.39-3.98-5.22-5.28-8.47-1.29-3.25-1.94-6.76-1.94-10.52,0-3.57.65-6.93,1.94-10.08,1.3-3.15,3.08-5.91,5.35-8.28,2.27-2.37,4.95-4.25,8.03-5.64,3.08-1.39,6.43-2.09,10.04-2.09,4.89,0,9.08,1.03,12.57,3.08,3.49,2.05,6.12,4.81,7.88,8.28l-7.55,5.57c-1.32-2.59-3.16-4.57-5.53-5.94-2.37-1.37-4.95-2.05-7.73-2.05-2.2,0-4.21.46-6.05,1.39-1.83.93-3.4,2.2-4.69,3.81-1.29,1.61-2.3,3.47-3.01,5.57-.71,2.1-1.06,4.33-1.06,6.67s.39,4.73,1.17,6.85c.78,2.13,1.86,3.97,3.23,5.53,1.37,1.56,2.99,2.8,4.87,3.7,1.88.9,3.92,1.36,6.12,1.36,5.03,0,9.58-2.37,13.63-7.11v-3.67h-10.48v-7.4h18.84v26.75h-8.36v-5.86h0ZM294.59,117.8v-52.04h10.12v52.04h-10.12ZM325.67,84.45v33.35h-10.12v-52.04h7.84l27.12,34.16v-34.08h10.12v51.97h-8.21l-26.75-33.35h0ZM407.62,111.93c-4.15,4.15-8.99,6.23-14.51,6.23-3.42,0-6.63-.68-9.64-2.05-3.01-1.37-5.62-3.25-7.84-5.64-2.22-2.39-3.98-5.22-5.28-8.47-1.29-3.25-1.94-6.76-1.94-10.52,0-3.57.65-6.93,1.94-10.08,1.3-3.15,3.08-5.91,5.35-8.28,2.27-2.37,4.95-4.25,8.03-5.64,3.08-1.39,6.43-2.09,10.04-2.09,4.89,0,9.08,1.03,12.57,3.08,3.49,2.05,6.12,4.81,7.88,8.28l-7.55,5.57c-1.32-2.59-3.16-4.57-5.53-5.94-2.37-1.37-4.95-2.05-7.73-2.05-2.2,0-4.21.46-6.05,1.39-1.83.93-3.4,2.2-4.69,3.81-1.3,1.61-2.3,3.47-3.01,5.57-.71,2.1-1.06,4.33-1.06,6.67s.39,4.73,1.17,6.85c.78,2.13,1.86,3.97,3.23,5.53,1.37,1.56,2.99,2.8,4.87,3.7,1.88.9,3.92,1.36,6.12,1.36,5.03,0,9.58-2.37,13.63-7.11v-3.67h-10.48v-7.4h18.84v26.75h-8.36v-5.86h0ZM36.06,144.78c-.34-.34-.97-.81-1.87-1.39-.9-.59-2-1.16-3.3-1.72-1.3-.56-2.7-1.04-4.21-1.43-1.52-.39-3.05-.59-4.62-.59-2.79,0-4.86.51-6.23,1.54-1.37,1.03-2.05,2.47-2.05,4.32,0,1.08.26,1.97.77,2.68.51.71,1.26,1.33,2.24,1.87.98.54,2.21,1.03,3.7,1.47,1.49.44,3.21.9,5.17,1.39,2.54.68,4.85,1.42,6.93,2.2,2.08.78,3.84,1.76,5.28,2.93,1.44,1.17,2.55,2.58,3.34,4.21.78,1.64,1.17,3.65,1.17,6.05,0,2.79-.53,5.17-1.58,7.15-1.05,1.98-2.47,3.58-4.25,4.8-1.78,1.22-3.84,2.11-6.16,2.68-2.32.56-4.75.84-7.29.84-3.91,0-7.77-.59-11.58-1.76-3.81-1.17-7.23-2.83-10.26-4.98l4.47-8.72c.44.44,1.23,1.01,2.38,1.72,1.15.71,2.5,1.42,4.07,2.13,1.56.71,3.3,1.31,5.2,1.8,1.91.49,3.86.73,5.86.73,5.57,0,8.36-1.78,8.36-5.35,0-1.12-.32-2.08-.95-2.86-.64-.78-1.54-1.47-2.71-2.05-1.17-.59-2.59-1.12-4.25-1.61-1.66-.49-3.52-1.03-5.57-1.61-2.49-.68-4.65-1.43-6.49-2.24-1.83-.81-3.36-1.76-4.58-2.86-1.22-1.1-2.14-2.37-2.75-3.81-.61-1.44-.92-3.16-.92-5.17,0-2.64.49-4.98,1.47-7.04.98-2.05,2.33-3.76,4.07-5.13,1.73-1.37,3.75-2.41,6.05-3.12,2.3-.71,4.76-1.06,7.4-1.06,3.66,0,7.04.57,10.11,1.72,3.08,1.15,5.77,2.5,8.06,4.07l-4.47,8.21h0ZM71.98,174.61c2.39,0,4.41-.49,6.05-1.47,1.64-.98,2.96-2.25,3.96-3.81,1-1.56,1.71-3.36,2.13-5.39.42-2.03.62-4.12.62-6.27v-26.53h10.04v26.53c0,3.57-.43,6.91-1.28,10.04-.86,3.13-2.2,5.86-4.03,8.21-1.83,2.35-4.19,4.2-7.07,5.57-2.88,1.37-6.33,2.05-10.34,2.05s-7.68-.72-10.59-2.16c-2.91-1.44-5.27-3.35-7.07-5.72-1.81-2.37-3.12-5.12-3.92-8.25-.81-3.13-1.21-6.38-1.21-9.75v-26.53h10.12v26.53c0,2.2.21,4.31.62,6.34.42,2.03,1.12,3.82,2.13,5.39,1,1.56,2.31,2.82,3.92,3.78,1.61.95,3.59,1.43,5.94,1.43h0ZM147.4,183.19v-34.45l-13.41,25.65h-5.5l-13.41-25.65v34.45h-10.12v-52.04h10.85l15.39,29.61,15.54-29.61h10.78v52.04h-10.12ZM210.81,183.19v-34.45l-13.41,25.65h-5.5l-13.41-25.65v34.45h-10.12v-52.04h10.85l15.39,29.61,15.54-29.61h10.78v52.04h-10.12ZM231.77,183.19v-52.04h10.12v52.04h-10.12ZM291.66,140.01h-16.64v43.17h-10.04v-43.17h-16.64v-8.87h43.32v8.87h0Z"/>
    </g>
  </g>
</svg>