<?xml version="1.0" encoding="UTF-8"?>
<svg id="Layer_2" data-name="Layer 2" xmlns="http://www.w3.org/2000/svg" width="394.84" height="369.84" viewBox="0 0 394.84 369.84">
  <defs>
    <style>
      .cls-1 {
        fill: #fff;
        fill-rule: evenodd;
      }
    </style>
  </defs>
  <g id="Layer_1-2" data-name="Layer 1">
    <g>
      <path class="cls-1" d="M154.24,299.77l12.8-22.17c-41.94-8.2-75.42-44.65-76.63-90.66v-.06c0-.43-.01-.85-.02-1.28,0-.32-.01-.63-.01-.95v-.39c0-.32.01-.63.01-.95,0-.43,0-.85.02-1.28v-.06c.79-30.18,16.6-60.03,42.11-76.41,14.49-9.72,19.71-9.8,33.83-14.5l-12.11-20.98c-19.99,5.07-38.92,15.42-54.57,31.06-46.28,46.27-46.28,121.3,0,167.58,15.64,15.64,34.58,26,54.57,31.06M120.32,11.31l-1.13.43-1.4.54-.3.12s-.04.02-.07.03c-4.26,1.68-8.46,3.53-12.59,5.53-.46.22-.92.45-1.38.68-1.74.86-2.88,2.32-3.28,4.22-.41,1.9.03,3.7,1.26,5.19.24.3.49.6.72.91,8.63,11.39,7.13,27.53-3.39,37.12-12.3,7.1-28.19,3.62-36.4-8.04-.22-.31-.43-.62-.63-.94-1.05-1.62-2.63-2.58-4.56-2.77-1.93-.19-3.67.45-5.01,1.85-5.17,5.37-35.27,40.52-31.43,49.01.8,1.77,2.22,2.96,4.1,3.43.38.09.75.19,1.12.3,13.52,3.97,21.93,17.6,19.45,31.4-5.9,12.76-20.55,19.08-33.94,14.55-.36-.12-.71-.25-1.06-.39-1.81-.7-3.66-.54-5.33.45-6.71,3.97-6.8,55.05,0,59.07,1.67.99,3.52,1.14,5.33.45.35-.14.71-.27,1.06-.39,13.39-4.53,28.04,1.78,33.94,14.55,2.48,13.8-5.93,27.43-19.45,31.4-.37.11-.75.21-1.12.3-1.88.47-3.31,1.66-4.1,3.43-.8,1.77-.75,3.62.14,5.34.74,1.44,1.5,2.87,2.27,4.28,7.88,14.35,17.66,27.6,29.02,39.39,1.34,1.39,3.08,2.04,5.01,1.85,1.93-.18,3.51-1.15,4.56-2.77.21-.32.41-.63.63-.94,8.21-11.66,24.1-15.14,36.4-8.04,10.52,9.59,12.02,25.73,3.39,37.12-.23.31-.48.61-.72.9-1.23,1.5-1.67,3.3-1.26,5.19.41,1.9,1.54,3.36,3.28,4.22.46.23.92.46,1.38.68,5.17,2.51,10.52,4.79,15.94,6.81l30.26-52.41c-22.44-4.79-43.8-15.9-61.24-33.34-48.09-48.09-48.09-126.07,0-174.16,17.43-17.43,38.8-28.54,61.24-33.34l-30.71-53.19Z"/>
      <polygon class="cls-1" points="119.58 0 288.08 0 341.46 92.46 394.84 184.92 341.46 277.38 288.08 369.84 119.58 369.84 213.91 206.44 315.2 184.92 213.94 163.45 119.58 0"/>
    </g>
  </g>
</svg>